# xmcd CD database file
#
# Track frame offsets:
#	182
#	9512
#	38530
#	56437
#	78737
#	96032
#	114905
#	132812
#	146777
#	153367
#	171000
#
# Disc length: 2614 seconds
#
# Revision: 0
# Processed by: cddbd v1.5.1PL0 Copyright (c) Steve Scherf et al.
# Submitted via: CDex 1.51
#
DISCID=810a340b
DTITLE=Enigma - Screen Behind the Mirror
DYEAR=2000
DGENRE=New Age
TTITLE0=The Gate
TTITLE1=Push the Limits
TTITLE2=Gravity of Love
TTITLE3=Smell of Desire
TTITLE4=Modern Crusaders
TTITLE5=Traces (Light and Weight)
TTITLE6=The Screen Behind the Mirror
TTITLE7=Endless Quest
TTITLE8=Camera Obscura
TTITLE9=Between Mind and Heart
TTITLE10=Silence Must Be Heard
EXTD=YEAR: 2000
EXTT0=
EXTT1=
EXTT2=
EXTT3=
EXTT4=
EXTT5=
EXTT6=
EXTT7=
EXTT8=
EXTT9=
EXTT10=
PLAYORDER=
